<svg width="162" height="40" viewBox="0 0 162 40" fill="none" xmlns="http://www.w3.org/2000/svg">
<path d="M38.26 1.08V31.22L34.5 4.85L33.54 5.8L37.43 32.96L29.66 9.68L28.81 10.53L36.74 34.32L24.85 14.49L24.06 15.28L36.09 35.33L20.05 19.29L19.29 20.05L35.33 36.09L15.28 24.06L14.5 24.85L34.32 36.74L10.53 28.81L9.68 29.66L32.96 37.43L5.8 33.54L4.85 34.49L31.22 38.26H1.08L0 39.34H39.34V0L38.26 1.08Z" fill="url(#paint0_linear_4529_2001)"/>
<path d="M55.14 32.1799L57.84 24.1499L60.54 32.1799H55.15H55.14ZM60.22 19.6899H55.42L48.54 39.3399H52.73L53.91 35.7999H61.74L62.92 39.3399H67.13L60.22 19.6899Z" fill="url(#paint1_linear_4529_2001)"/>
<path d="M82.8402 35.6299V39.3399H71.4702V19.6899H75.3402V35.6299H82.8402Z" fill="url(#paint2_linear_4529_2001)"/>
<path d="M142.85 19.6899V39.3399H139V31.1999H131.7V39.3399H127.83V19.6899H131.7V27.4899H139V19.6899H142.85Z" fill="url(#paint3_linear_4529_2001)"/>
<path d="M161.86 23.3999H156.55V39.3399H152.68V23.3999H147.4V19.6899H161.86V23.3999Z" fill="url(#paint4_linear_4529_2001)"/>
<path d="M94.7899 23.3999H98.5499V19.6899H87.1899V23.3999H90.9099V35.6299H87.1899V39.3399H90.9099H94.7899H98.5499V35.6299H94.7899V23.3999Z" fill="url(#paint5_linear_4529_2001)"/>
<path d="M123.28 30.5701C123.28 36.2401 119.27 40.0001 113.62 40.0001C107.47 40.0001 103.09 35.4301 103.09 29.8101C103.09 24.1901 107.52 19.5601 113.4 19.5601C117.13 19.5601 120.3 21.4401 121.96 24.1301L118.65 26.0401C117.75 24.4701 115.76 23.3201 113.37 23.3201C109.64 23.3201 106.94 26.0701 106.94 29.8001C106.94 33.5301 109.55 36.2001 113.65 36.2001C116.74 36.2001 118.7 34.7101 119.38 32.4601H113.43V29.0401H123.28V30.5601V30.5701Z" fill="url(#paint6_linear_4529_2001)"/>
<defs>
<linearGradient id="paint0_linear_4529_2001" x1="160.93" y1="16.32" x2="12.41" y2="20.41" gradientUnits="userSpaceOnUse">
<stop stop-color="#1FA9E1"/>
<stop offset="0.06" stop-color="#3FA7DD"/>
<stop offset="0.15" stop-color="#6C9FD1"/>
<stop offset="0.26" stop-color="#9A91C0"/>
<stop offset="0.4" stop-color="#CA7AAA"/>
<stop offset="0.5" stop-color="#EC5F98"/>
<stop offset="1" stop-color="#FFC216"/>
</linearGradient>
<linearGradient id="paint1_linear_4529_2001" x1="161.21" y1="26.7599" x2="12.7" y2="30.8499" gradientUnits="userSpaceOnUse">
<stop stop-color="#1FA9E1"/>
<stop offset="0.06" stop-color="#3FA7DD"/>
<stop offset="0.15" stop-color="#6C9FD1"/>
<stop offset="0.26" stop-color="#9A91C0"/>
<stop offset="0.4" stop-color="#CA7AAA"/>
<stop offset="0.5" stop-color="#EC5F98"/>
<stop offset="1" stop-color="#FFC216"/>
</linearGradient>
<linearGradient id="paint2_linear_4529_2001" x1="161.23" y1="27.1999" x2="12.7102" y2="31.2899" gradientUnits="userSpaceOnUse">
<stop stop-color="#1FA9E1"/>
<stop offset="0.06" stop-color="#3FA7DD"/>
<stop offset="0.15" stop-color="#6C9FD1"/>
<stop offset="0.26" stop-color="#9A91C0"/>
<stop offset="0.4" stop-color="#CA7AAA"/>
<stop offset="0.5" stop-color="#EC5F98"/>
<stop offset="1" stop-color="#FFC216"/>
</linearGradient>
<linearGradient id="paint3_linear_4529_2001" x1="161.27" y1="28.7999" x2="12.76" y2="32.8899" gradientUnits="userSpaceOnUse">
<stop stop-color="#1FA9E1"/>
<stop offset="0.06" stop-color="#3FA7DD"/>
<stop offset="0.15" stop-color="#6C9FD1"/>
<stop offset="0.26" stop-color="#9A91C0"/>
<stop offset="0.4" stop-color="#CA7AAA"/>
<stop offset="0.5" stop-color="#EC5F98"/>
<stop offset="1" stop-color="#FFC216"/>
</linearGradient>
<linearGradient id="paint4_linear_4529_2001" x1="161.28" y1="29.2599" x2="12.7698" y2="33.3499" gradientUnits="userSpaceOnUse">
<stop stop-color="#1FA9E1"/>
<stop offset="0.06" stop-color="#3FA7DD"/>
<stop offset="0.15" stop-color="#6C9FD1"/>
<stop offset="0.26" stop-color="#9A91C0"/>
<stop offset="0.4" stop-color="#CA7AAA"/>
<stop offset="0.5" stop-color="#EC5F98"/>
<stop offset="1" stop-color="#FFC216"/>
</linearGradient>
<linearGradient id="paint5_linear_4529_2001" x1="161.24" y1="27.6299" x2="12.7299" y2="31.7199" gradientUnits="userSpaceOnUse">
<stop stop-color="#1FA9E1"/>
<stop offset="0.06" stop-color="#3FA7DD"/>
<stop offset="0.15" stop-color="#6C9FD1"/>
<stop offset="0.26" stop-color="#9A91C0"/>
<stop offset="0.4" stop-color="#CA7AAA"/>
<stop offset="0.5" stop-color="#EC5F98"/>
<stop offset="1" stop-color="#FFC216"/>
</linearGradient>
<linearGradient id="paint6_linear_4529_2001" x1="161.26" y1="28.4701" x2="12.7498" y2="32.5601" gradientUnits="userSpaceOnUse">
<stop stop-color="#1FA9E1"/>
<stop offset="0.06" stop-color="#3FA7DD"/>
<stop offset="0.15" stop-color="#6C9FD1"/>
<stop offset="0.26" stop-color="#9A91C0"/>
<stop offset="0.4" stop-color="#CA7AAA"/>
<stop offset="0.5" stop-color="#EC5F98"/>
<stop offset="1" stop-color="#FFC216"/>
</linearGradient>
</defs>
</svg>
